<svg xmlns="http://www.w3.org/2000/svg" width="45" height="45" viewBox="0 0 45 45" fill="none"><g clip-path="url(#clip0_29748_5617)"><path d="M44.7362 8.20814C44.2654 6.52662 43.1881 4.7826 41.7026 3.29734C40.2175 1.81199 38.4734 0.734712 36.7918 0.263882C34.8463 -0.280864 33.1694 0.0239409 32.0711 1.12249L1.12248 32.071C0.0239333 33.1694 -0.280871 34.846 0.263875 36.7918C0.734705 38.4734 1.81207 40.2174 3.29742 41.7026C4.78268 43.188 6.5267 44.2653 8.20822 44.7362C8.83884 44.9128 9.44106 45.0001 10.0045 45.0001C11.1798 45.0001 12.1866 44.6201 12.929 43.8778L24.3642 32.4425L31.587 39.6652L33.2026 33.2027L39.6652 31.587L32.4425 24.3643L43.8777 12.9291C44.9761 11.8306 45.281 10.154 44.7362 8.20814ZM23.5245 29.5537L13.8149 39.2634C13.8054 39.2276 13.7978 39.1926 13.7877 39.1566C13.3169 37.4751 12.2395 35.7311 10.7541 34.2458C9.26888 32.7605 7.52487 31.6832 5.84335 31.2123C5.80749 31.2023 5.77233 31.1945 5.73656 31.185L15.4462 21.4755C15.8358 21.0859 16.618 21.0188 17.592 21.2914C18.8265 21.6371 20.196 22.4969 21.3495 23.6503C22.5029 24.8037 23.3628 26.1733 23.7085 27.4079C23.9812 28.3819 23.9141 29.1641 23.5245 29.5537ZM42.0135 11.0648L32.5712 20.5072C32.5617 20.4714 32.554 20.4364 32.5439 20.4004C32.0732 18.7189 30.9958 16.9749 29.5104 15.4896C28.0251 14.0043 26.2811 12.927 24.5995 12.4561C24.5636 12.446 24.5285 12.4383 24.4928 12.4288L33.9352 2.98656C34.3249 2.59703 35.1067 2.52997 36.081 2.8026C37.3155 3.14819 38.685 4.00802 39.8386 5.1615C40.992 6.31489 41.8518 7.68449 42.1975 8.919C42.4701 9.893 42.4031 10.6751 42.0135 11.0648Z" fill="#FFDE96"></path></g><defs><clipPath id="clip0_29748_5617"><rect width="45" height="45" fill="white"></rect></clipPath></defs></svg>