<svg width="59" height="40" viewBox="0 0 59 40" fill="none" xmlns="http://www.w3.org/2000/svg">
<g clip-path="url(#clip0_2218:5705)">
<path d="M46.7973 12.4898L55.6226 3.74694L52.2606 0.416327L42.5948 9.99184C38.8125 7.91021 34.1898 6.66123 29.567 6.66123C24.9442 6.66123 20.3215 7.91021 16.5392 9.57551L6.87344 0L3.51143 3.74694L12.3367 12.4898C4.77218 17.4857 0.149414 26.2286 0.149414 35.8041V39.9674H58.9846V35.8041C58.9846 26.2286 54.3619 17.4857 46.7973 12.4898ZM16.9595 31.6408C14.438 31.6408 12.757 29.9755 12.757 27.4776C12.757 24.9796 14.438 23.3143 16.9595 23.3143C19.481 23.3143 21.162 24.9796 21.162 27.4776C21.162 29.9755 19.481 31.6408 16.9595 31.6408ZM42.1746 31.6408C39.653 31.6408 37.972 29.9755 37.972 27.4776C37.972 24.9796 39.653 23.3143 42.1746 23.3143C44.6961 23.3143 46.3771 24.9796 46.3771 27.4776C46.3771 29.9755 44.6961 31.6408 42.1746 31.6408Z" fill="#606064"/>
</g>
<defs>
<clipPath id="clip0_2218:5705">
<rect width="59" height="40" fill="white"/>
</clipPath>
</defs>
</svg>
