<svg width="18" height="18" viewBox="0 0 18 18" fill="none" xmlns="http://www.w3.org/2000/svg">
<g opacity="0.3" clip-path="url(#clip0_2874_48655)">
<path d="M12.406 0C12.4477 0 12.4894 0 12.5334 0C12.6357 1.26352 12.1534 2.20762 11.5673 2.89131C10.9922 3.57027 10.2046 4.22878 8.93088 4.12887C8.84591 2.88344 9.32898 2.00936 9.91432 1.32725C10.4572 0.691554 11.4524 0.12588 12.406 0Z" fill="white"/>
<path d="M16.2618 13.1513C16.2618 13.1639 16.2618 13.1749 16.2618 13.1867C15.9039 14.2709 15.3933 15.2 14.7702 16.0623C14.2013 16.8451 13.5043 17.8986 12.2596 17.8986C11.1841 17.8986 10.4698 17.207 9.36754 17.1881C8.20158 17.1693 7.56038 17.7664 6.49433 17.9167C6.37238 17.9167 6.25044 17.9167 6.13085 17.9167C5.34804 17.8034 4.71627 17.1834 4.25603 16.6248C2.89888 14.9742 1.85014 12.8421 1.65503 10.1137C1.65503 9.84618 1.65503 9.57947 1.65503 9.31197C1.73764 7.35926 2.68646 5.7716 3.94762 5.00216C4.61321 4.59305 5.5282 4.24451 6.54704 4.40029C6.98369 4.46795 7.42978 4.61743 7.82079 4.76534C8.19135 4.90775 8.65475 5.16029 9.09375 5.14692C9.39115 5.13826 9.68696 4.98327 9.98672 4.87392C10.8647 4.55686 11.7254 4.19338 12.8599 4.3641C14.2234 4.57023 15.1911 5.17603 15.789 6.11069C14.6356 6.84473 13.7238 7.9509 13.8796 9.83988C14.018 11.5558 15.0156 12.5597 16.2618 13.1513Z" fill="white"/>
</g>
<defs>
<clipPath id="clip0_2874_48655">
<rect width="17.9167" height="17.9167" fill="white"/>
</clipPath>
</defs>
</svg>
