<svg width="60" height="60" viewBox="0 0 60 60" fill="none" xmlns="http://www.w3.org/2000/svg">
<g clip-path="url(#clip0_2218:5713)">
<path d="M41.546 0C41.6857 0 41.8253 0 41.9729 0C42.3154 4.23133 40.7003 7.39296 38.7375 9.68252C36.8115 11.9563 34.1742 14.1615 29.9086 13.8269C29.624 9.65617 31.2417 6.72902 33.202 4.44474C35.0199 2.3159 38.3528 0.421552 41.546 0Z" fill="#606064"/>
<path d="M54.4588 44.0419C54.4588 44.0841 54.4588 44.121 54.4588 44.1605C53.26 47.7911 51.5501 50.9027 49.4634 53.7903C47.5585 56.4118 45.2242 59.9397 41.0561 59.9397C37.4544 59.9397 35.0621 57.6238 31.3709 57.5606C27.4663 57.4973 25.319 59.4971 21.749 60.0003C21.3406 60.0003 20.9322 60.0003 20.5318 60.0003C17.9102 59.6209 15.7946 57.5448 14.2533 55.6741C9.70843 50.1465 6.19637 43.0065 5.54297 33.8694C5.54297 32.9736 5.54297 32.0804 5.54297 31.1846C5.81961 24.6453 8.99706 19.3285 13.2205 16.7517C15.4494 15.3817 18.5136 14.2145 21.9255 14.7362C23.3878 14.9628 24.8817 15.4634 26.1911 15.9587C27.432 16.4356 28.9839 17.2813 30.454 17.2365C31.45 17.2075 32.4406 16.6885 33.4444 16.3223C36.3848 15.2605 39.2671 14.0433 43.0664 14.615C47.6323 15.3053 50.873 17.334 52.8753 20.464C49.0129 22.9222 45.9593 26.6266 46.4809 32.9525C46.9446 38.6988 50.2854 42.0606 54.4588 44.0419Z" fill="#606064"/>
</g>
<defs>
<clipPath id="clip0_2218:5713">
<rect width="60" height="60" fill="white"/>
</clipPath>
</defs>
</svg>
