<svg width="70" height="70" viewBox="0 0 70 70" fill="none" xmlns="http://www.w3.org/2000/svg">
<path d="M1.75 6.58991V50.3946C1.75 51.3243 2.50195 52.0762 3.43164 52.0762C4.36133 52.0762 5.11328 51.3243 5.11328 50.3946V17.5411H64.9004V50.3946C64.9004 51.3243 65.6523 52.0762 66.582 52.0762C67.5117 52.0762 68.2637 51.3243 68.2637 50.3946V6.58991C68.2637 3.81451 66.0078 1.55865 63.2324 1.55865H6.78125C4.00586 1.55865 1.75 3.81451 1.75 6.58991ZM64.9004 6.58991V14.1915H5.09961V6.58991C5.09961 5.66022 5.85156 4.90826 6.78125 4.90826H63.2051C64.1348 4.90826 64.9004 5.66022 64.9004 6.58991Z" fill="#45474D"/>
<path d="M9.74805 11.2247C10.1855 11.2247 10.623 11.0469 10.9375 10.7325C11.252 10.418 11.4297 9.9942 11.4297 9.54303C11.4297 9.09186 11.252 8.66803 10.9375 8.35358C10.3086 7.72467 9.1875 7.72467 8.57227 8.35358C8.25781 8.66803 8.08008 9.09186 8.08008 9.54303C8.08008 9.9942 8.25781 10.418 8.57227 10.7325C8.87305 11.0469 9.29688 11.2247 9.74805 11.2247Z" fill="#45474D"/>
<path d="M16.0508 11.2247C16.4883 11.2247 16.9258 11.0469 17.2402 10.7325C17.5547 10.418 17.7324 9.9942 17.7324 9.54303C17.7324 9.09186 17.5547 8.66803 17.2402 8.35358C16.6113 7.72467 15.4902 7.72467 14.875 8.35358C14.5605 8.66803 14.3965 9.09186 14.3965 9.54303C14.3965 9.9942 14.5742 10.418 14.875 10.7325C15.1895 11.0469 15.6133 11.2247 16.0508 11.2247Z" fill="#45474D"/>
<path d="M22.3672 11.2247C22.8047 11.2247 23.2422 11.0469 23.5566 10.7325C23.8711 10.418 24.0488 9.9942 24.0488 9.54303C24.0488 9.09186 23.8711 8.66803 23.5566 8.35358C22.9277 7.72467 21.8066 7.72467 21.1914 8.35358C20.877 8.66803 20.6992 9.09186 20.6992 9.54303C20.6992 9.9942 20.877 10.418 21.1914 10.7325C21.4922 11.0469 21.9297 11.2247 22.3672 11.2247Z" fill="#45474D"/>
<path d="M55.4392 68.3868C55.576 68.4279 55.7127 68.4415 55.8494 68.4415C56.6013 68.4415 57.2849 67.9357 57.4763 67.17C59.3631 59.6915 57.8455 51.8029 57.7771 51.4611C57.6951 51.0372 57.449 50.6544 57.0799 50.4083C49.6424 45.295 39.7576 42.9572 36.2986 42.2599L34.5623 27.8361C34.5076 24.6368 31.8826 22.0529 28.6697 22.0529C25.4978 22.0529 22.9412 24.5001 22.7908 27.6447C22.7908 27.6993 22.7771 27.754 22.7771 27.8224V36.3536L22.6404 57.1896L20.3709 55.4396C17.7049 53.1154 11.4295 50.2443 6.38456 55.7814C5.85135 56.3693 5.79666 57.2306 6.26151 57.8732C6.39823 58.0782 9.80252 62.8361 15.2303 67.9767C15.9002 68.6056 16.9666 68.5783 17.5955 67.9083C18.2381 67.2384 18.1971 66.172 17.5271 65.5431C13.9041 62.1114 11.1834 58.7892 9.87088 57.0939C13.6443 54.2228 17.7185 57.5587 18.1971 57.9825C18.2244 58.0099 18.2517 58.0236 18.2791 58.0509L23.2556 61.8927C23.7615 62.2755 24.4451 62.3575 25.0056 62.0704C25.5799 61.797 25.9353 61.2091 25.949 60.5802L26.1131 36.3536V27.9181C26.1131 27.9044 26.1131 27.8771 26.1131 27.8634C26.1541 26.4825 27.2615 25.4025 28.656 25.4025C30.0506 25.4025 31.199 26.5372 31.199 27.9454C31.199 28.0138 31.199 28.0822 31.2127 28.1505L33.1267 43.8868C33.2088 44.6251 33.783 45.213 34.5213 45.3361C34.6443 45.3497 46.2791 47.3322 54.6189 52.7872C54.9197 54.7697 55.6443 60.7989 54.2361 66.3634C54.0037 67.2521 54.5506 68.1681 55.4392 68.3868Z" fill="#45474D"/>
</svg>
