<svg width="34" height="27" viewBox="0 0 34 27" fill="none" xmlns="http://www.w3.org/2000/svg">
<path d="M26.351 12.9971C25.9643 14.9857 27.1012 16.3745 28.5562 16.6308C28.9923 16.7076 29.414 16.6951 29.8487 16.6951C30.6032 16.6023 31.3375 16.2925 32.0688 15.9073C30.2528 19.844 25.4068 20.1561 21.8456 18.467C19.7993 17.4964 22.2249 26.0143 21.8457 24.0301H33.248L33.821 4.39893H33.248C30.1309 9.10416 26.8246 10.561 26.351 12.9971Z" fill="url(#paint0_linear)"/>
<path d="M7.55761 12.9971C7.94425 14.9857 6.80735 16.3745 5.35238 16.6308C4.93367 16.7046 4.43425 16.6972 4.0231 16.6972C3.25099 16.6108 2.58744 16.3011 1.83974 15.9073C3.65573 19.844 8.50178 20.1561 12.063 18.467C14.1093 17.4964 11.6836 26.0143 12.0629 24.0301H0.660565L0.0875854 4.39893H0.660565C3.77767 9.10416 7.08397 10.561 7.55761 12.9971Z" fill="url(#paint1_linear)"/>
<path d="M25.0902 11.7302C25.0902 14.2761 23.3584 15.7007 21.7291 15.7007C20.0997 15.7007 19.522 15.0895 18.3733 14.3676C18.6447 15.7879 19.5531 17.0275 20.7981 17.9733H13.0301C14.2741 17.0277 15.1817 15.7887 15.4531 14.369C14.3043 15.0909 13.654 15.7007 12.0972 15.7021C10.4679 15.7021 8.73608 14.2776 8.73608 11.7316L25.0902 11.7302Z" fill="url(#paint2_linear)"/>
<path fill-rule="evenodd" clip-rule="evenodd" d="M25.0872 11.2429C25.0872 8.62319 23.6044 7.18143 21.49 5.12557C21.2779 4.91937 21.0612 4.71386 20.8398 4.50398C19.6582 3.38359 18.3452 2.13862 16.9106 0C15.4974 2.12297 14.3355 3.22253 13.1019 4.38992C12.8487 4.62961 12.5924 4.87215 12.3303 5.12699C10.2159 7.18286 8.73306 8.62461 8.73306 11.2443C8.73306 13.7902 10.4649 15.2148 12.0942 15.2148C13.2763 15.2148 14.3013 14.6036 15.45 13.8817C14.4108 19.3188 4.03869 22.1067 1.17922 15.9079C2.3214 16.5095 3.47952 16.8451 4.69186 16.6315C6.14683 16.3751 7.28373 14.9864 6.89709 12.9977C6.64936 11.7236 5.62667 10.7173 4.26145 9.37395C3.01652 8.149 1.48677 6.64378 4.81848e-05 4.39959V24.0163C1.60676e-05 24.0181 0 24.02 0 24.0218C0 24.0237 1.60676e-05 24.0255 4.81848e-05 24.0274V24.0308H0.000124748C0.0355073 25.3027 7.59307 26.3323 16.9107 26.3323C26.2502 26.3323 33.8214 25.2979 33.8214 24.0218C33.8214 24.0128 33.821 24.0037 33.8202 23.9947V4.39817C32.3335 6.64236 30.8038 8.14757 29.5588 9.37253C28.1936 10.7159 27.1709 11.7221 26.9232 12.9963C26.5365 14.9849 27.6734 16.3737 29.1284 16.63C30.3408 16.8436 31.4989 16.5081 32.6411 15.9065C29.7816 22.1053 19.4095 19.3174 18.3702 13.8802C19.519 14.6022 20.544 15.2134 21.7261 15.2134C23.3554 15.2134 25.0872 13.7888 25.0872 11.2429Z" fill="url(#paint3_linear)"/>
<ellipse cx="16.9105" cy="23.9384" rx="15.7026" ry="1.6757" fill="url(#paint4_linear)"/>
<defs>
<linearGradient id="paint0_linear" x1="27.9436" y1="14.3649" x2="28.3643" y2="15.5946" gradientUnits="userSpaceOnUse">
<stop stop-color="#FDE0A0"/>
<stop offset="1" stop-color="#846731"/>
</linearGradient>
<linearGradient id="paint1_linear" x1="5.96501" y1="14.3649" x2="5.54431" y2="15.5946" gradientUnits="userSpaceOnUse">
<stop stop-color="#FDE0A0"/>
<stop offset="1" stop-color="#846731"/>
</linearGradient>
<linearGradient id="paint2_linear" x1="16.9132" y1="9.14134" x2="16.9132" y2="15.2712" gradientUnits="userSpaceOnUse">
<stop stop-color="#FDE0A0"/>
<stop offset="1" stop-color="#846731"/>
</linearGradient>
<linearGradient id="paint3_linear" x1="39.4447" y1="16.7424" x2="-6.4829" y2="16.8172" gradientUnits="userSpaceOnUse">
<stop stop-color="#FFE2A2"/>
<stop offset="0.165438" stop-color="#C09C58"/>
<stop offset="0.389461" stop-color="#E7C681"/>
<stop offset="0.491766" stop-color="#F1D18B"/>
<stop offset="0.582467" stop-color="#E7C681"/>
<stop offset="0.805297" stop-color="#C09C58"/>
<stop offset="1" stop-color="#FFE2A2"/>
</linearGradient>
<linearGradient id="paint4_linear" x1="16.9105" y1="21.6343" x2="16.9105" y2="29.5939" gradientUnits="userSpaceOnUse">
<stop stop-color="#4F380E"/>
<stop offset="1" stop-color="#FFC84E"/>
</linearGradient>
</defs>
</svg>
