<svg width="55" height="19" viewBox="0 0 55 19" fill="none" xmlns="http://www.w3.org/2000/svg">
<g clip-path="url(#clip0_3254_37550)">
<path d="M12.9975 0C13.0392 0 13.0809 0 13.125 0C13.2272 1.26352 12.745 2.20762 12.1588 2.89131C11.5837 3.57027 10.7962 4.22878 9.52243 4.12887C9.43746 2.88344 9.92053 2.00936 10.5059 1.32725C11.0487 0.691554 12.044 0.12588 12.9975 0Z" fill="#8D7B52"/>
<path d="M16.8536 13.1514C16.8536 13.164 16.8536 13.175 16.8536 13.1868C16.4957 14.271 15.9851 15.2001 15.362 16.0624C14.7931 16.8452 14.0961 17.8987 12.8514 17.8987C11.7759 17.8987 11.0616 17.2071 9.95934 17.1883C8.79338 17.1694 8.15217 17.7665 7.08613 17.9168C6.96418 17.9168 6.84224 17.9168 6.72265 17.9168C5.93983 17.8035 5.30807 17.1835 4.84782 16.6249C3.49068 14.9743 2.44194 12.8422 2.24683 10.1138C2.24683 9.8463 2.24683 9.57959 2.24683 9.3121C2.32943 7.35938 3.27826 5.77172 4.53942 5.00228C5.20501 4.59317 6.12 4.24464 7.13884 4.40041C7.57549 4.46807 8.02157 4.61756 8.41259 4.76547C8.78315 4.90787 9.24654 5.16041 9.68555 5.14704C9.98294 5.13839 10.2788 4.9834 10.5785 4.87404C11.4565 4.55698 12.3172 4.1935 13.4517 4.36422C14.8152 4.57035 15.7829 5.17615 16.3808 6.11081C15.2274 6.84485 14.3156 7.95102 14.4714 9.84001C14.6098 11.5559 15.6074 12.5598 16.8536 13.1514Z" fill="#8D7B52"/>
</g>
<g clip-path="url(#clip1_3254_37550)">
<path d="M36.5083 3.79678V9.39053H44.3396V2.81787L36.5083 3.79678Z" fill="#8D7B52"/>
<path d="M45.4583 2.67808V9.39058H54.4083V1.55933L45.4583 2.67808Z" fill="#8D7B52"/>
<path d="M45.4583 10.5093V17.2218L54.4083 18.3405V10.5093H45.4583Z" fill="#8D7B52"/>
<path d="M36.5083 10.5093V16.103L44.3396 17.0819V10.5093H36.5083Z" fill="#8D7B52"/>
</g>
<defs>
<clipPath id="clip0_3254_37550">
<rect width="17.9167" height="17.9167" fill="white" transform="translate(0.591553)"/>
</clipPath>
<clipPath id="clip1_3254_37550">
<rect width="17.9" height="17.9" fill="white" transform="translate(36.5083 1)"/>
</clipPath>
</defs>
</svg>
