<svg width="70" height="70" viewBox="0 0 70 70" fill="none" xmlns="http://www.w3.org/2000/svg">
<path d="M58.9487 26.6176V23.9265C58.9487 17.4853 56.6693 11.5 52.5369 7.05882C48.3016 2.5 42.4781 0 36.1252 0H33.9046C27.5516 0 21.7281 2.5 17.4928 7.05882C13.3605 11.5 11.0811 17.4853 11.0811 23.9265V26.6176C6.06635 26.9559 2.08105 31.1324 2.08105 36.2353V40.4412C2.08105 45.75 6.40458 50.0735 11.7134 50.0735H17.1399C18.1105 50.0735 18.9046 49.2794 18.9046 48.3088V28.3529C18.9046 27.3824 18.1105 26.5882 17.1399 26.5882H14.6105V23.9265C14.6105 12.2941 22.9046 3.52941 33.8899 3.52941H36.1105C47.1105 3.52941 55.3899 12.2941 55.3899 23.9265V26.5882H52.8605C51.8899 26.5882 51.0958 27.3824 51.0958 28.3529V48.2941C51.0958 49.2647 51.8899 50.0588 52.8605 50.0588H55.3311C54.6105 59.2647 48.2722 61.3971 45.3311 61.8824C44.5222 59.3971 42.184 57.6029 39.434 57.6029H35.0222C31.6105 57.6029 28.8311 60.3824 28.8311 63.7941C28.8311 67.2059 31.6105 70 35.0222 70H39.4487C42.3016 70 44.6987 68.0588 45.4193 65.4412C46.8605 65.2353 49.1399 64.7206 51.4046 63.3971C54.5958 61.5294 58.3752 57.7206 58.8752 50.0441C63.9193 49.7353 67.9193 45.5441 67.9193 40.4265V36.2206C67.934 31.1324 63.9634 26.9412 58.9487 26.6176ZM15.4046 46.5294H11.7428C8.37517 46.5294 5.63988 43.7941 5.63988 40.4265V36.2206C5.63988 32.8529 8.37517 30.1176 11.7428 30.1176H15.4046V46.5294ZM39.4487 66.4706H35.0222C33.5516 66.4706 32.3605 65.2794 32.3605 63.8088C32.3605 62.3382 33.5516 61.1471 35.0222 61.1471H39.4487C40.9193 61.1471 42.1105 62.3382 42.1105 63.8088C42.1105 65.2794 40.9193 66.4706 39.4487 66.4706ZM64.4046 40.4265C64.4046 43.7941 61.6693 46.5294 58.3016 46.5294H54.6399V30.1176H58.3016C61.6693 30.1176 64.4046 32.8529 64.4046 36.2206V40.4265Z" fill="#45474D"/>
</svg>
