<svg width="54" height="18" viewBox="0 0 54 18" fill="none" xmlns="http://www.w3.org/2000/svg">
<g opacity="0.3" clip-path="url(#clip0_3244_37549)">
<path d="M12.4893 0.041748C12.531 0.041748 12.5727 0.041748 12.6168 0.041748C12.7191 1.30527 12.2368 2.24937 11.6507 2.93306C11.0755 3.61202 10.288 4.27053 9.01425 4.17061C8.92928 2.92519 9.41235 2.05111 9.99769 1.369C10.5405 0.733302 11.5358 0.167628 12.4893 0.041748Z" fill="white"/>
<path d="M16.3452 13.1932C16.3452 13.2058 16.3452 13.2168 16.3452 13.2286C15.9872 14.3127 15.4766 15.2419 14.8535 16.1042C14.2847 16.887 13.5877 17.9404 12.343 17.9404C11.2675 17.9404 10.5532 17.2489 9.45092 17.23C8.28495 17.2111 7.64375 17.8083 6.5777 17.9585C6.45576 17.9585 6.33381 17.9585 6.21423 17.9585C5.43141 17.8452 4.79965 17.2253 4.3394 16.6667C2.98226 15.0161 1.93352 12.884 1.7384 10.1555C1.7384 9.88805 1.7384 9.62134 1.7384 9.35384C1.82101 7.40113 2.76983 5.81347 4.03099 5.04403C4.69658 4.63492 5.61158 4.28639 6.63042 4.44216C7.06706 4.50982 7.51315 4.6593 7.90417 4.80721C8.27473 4.94962 8.73812 5.20216 9.17713 5.18879C9.47452 5.18013 9.77034 5.02514 10.0701 4.91579C10.9481 4.59873 11.8088 4.23525 12.9433 4.40597C14.3067 4.6121 15.2744 5.2179 15.8724 6.15256C14.719 6.8866 13.8072 7.99277 13.9629 9.88175C14.1014 11.5977 15.099 12.6015 16.3452 13.1932Z" fill="white"/>
</g>
<g opacity="0.3" clip-path="url(#clip1_3244_37549)">
<path d="M50.2112 6.71263L52.8912 4.0497L51.8703 3.03525L48.935 5.95179C47.7865 5.31776 46.3826 4.93735 44.9788 4.93735C43.575 4.93735 42.1712 5.31776 41.0227 5.82499L38.0874 2.90845L37.0665 4.0497L39.7465 6.71263C37.4493 8.23431 36.0455 10.8972 36.0455 13.8138V15.0818H53.9122V13.8138C53.9122 10.8972 52.5083 8.23431 50.2112 6.71263ZM41.1503 12.5457C40.3846 12.5457 39.8741 12.0385 39.8741 11.2777C39.8741 10.5168 40.3846 10.0096 41.1503 10.0096C41.916 10.0096 42.4265 10.5168 42.4265 11.2777C42.4265 12.0385 41.916 12.5457 41.1503 12.5457ZM48.8074 12.5457C48.0417 12.5457 47.5312 12.0385 47.5312 11.2777C47.5312 10.5168 48.0417 10.0096 48.8074 10.0096C49.5731 10.0096 50.0836 10.5168 50.0836 11.2777C50.0836 12.0385 49.5731 12.5457 48.8074 12.5457Z" fill="white"/>
</g>
<defs>
<clipPath id="clip0_3244_37549">
<rect width="17.9167" height="17.9167" fill="white" transform="translate(0.083374 0.041748)"/>
</clipPath>
<clipPath id="clip1_3244_37549">
<rect width="17.9167" height="12.1833" fill="white" transform="translate(36 2.90845)"/>
</clipPath>
</defs>
</svg>
