<svg width="70" height="70" viewBox="0 0 70 70" fill="none" xmlns="http://www.w3.org/2000/svg">
<path d="M59.7326 10.2602C53.1228 3.65048 44.3386 0.00720215 34.9928 0.00720215C25.647 0.00720215 16.8628 3.65048 10.253 10.2602C3.64328 16.87 0 25.6542 0 35C0 44.3458 3.64328 53.13 10.253 59.7398C16.8628 66.3495 25.647 69.9928 34.9928 69.9928C40.4217 69.9928 45.3754 68.9848 49.3067 67.0983C53.0364 65.2983 55.7437 62.7206 56.9389 59.855C58.3645 56.4133 57.5581 52.8276 54.7356 50.0051L54.6348 49.9043C54.678 49.8467 54.7356 49.8035 54.7789 49.7603C56.7949 47.6435 56.7949 44.8642 54.75 42.8194L49.7675 37.8369C48.7883 36.8288 47.6075 36.2816 46.3547 36.2816C45.1018 36.2816 43.9066 36.8144 42.8986 37.8225L40.3065 40.4145C40.1769 40.3425 40.0617 40.2849 39.9321 40.2273C39.6153 40.0689 39.3273 39.9249 39.0825 39.7665C36.4472 38.0961 34.0568 35.9072 31.7671 33.0992C30.7591 31.8319 30.0679 30.7519 29.5495 29.6863C30.1975 29.0815 30.8023 28.4623 31.3927 27.8574C31.6375 27.5982 31.8967 27.3534 32.1559 27.0942C34.2728 24.9774 34.2728 22.2413 32.1559 20.1245L29.6935 17.662C29.4055 17.374 29.1319 17.1004 28.8583 16.8124C28.311 16.2508 27.7494 15.6748 27.1446 15.1131C26.1654 14.1483 24.999 13.6443 23.7605 13.6443C22.5221 13.6443 21.3413 14.1483 20.3333 15.1131C20.3189 15.1275 20.3189 15.1275 20.3045 15.1419L17.2084 18.238C15.97 19.4764 15.2499 21.0029 15.1059 22.7597C14.8899 25.4958 15.682 28.0302 16.3012 29.6863C17.7844 33.6896 20.0021 37.4049 23.2997 41.3793C27.303 46.1603 32.1271 49.9475 37.6425 52.6116C39.7593 53.6196 42.5962 54.8005 45.793 55.0165C45.9946 55.0309 46.1963 55.0309 46.3979 55.0309C48.6299 55.0309 50.5164 54.2244 51.9852 52.626C51.9996 52.6116 52.0284 52.5828 52.0428 52.5684C52.086 52.5108 52.1436 52.4532 52.2012 52.3956L52.2876 52.482C54.1308 54.3252 54.6348 56.4277 53.742 58.5733C52.086 62.5046 45.649 66.5367 34.9928 66.5367C17.5972 66.5367 3.45608 52.3956 3.45608 35C3.45608 17.6044 17.5972 3.46328 34.9928 3.46328C52.3884 3.46328 66.5295 17.6044 66.5295 35C66.5295 37.8657 66.1407 40.6881 65.3919 43.4098C65.1327 44.3314 65.6799 45.2818 66.6015 45.541C67.5231 45.8003 68.4736 45.253 68.7328 44.3314C69.568 41.3073 70 38.1681 70 35C69.9856 25.6542 66.3423 16.87 59.7326 10.2602ZM49.4219 50.2788C48.6011 51.1572 47.6795 51.546 46.3979 51.546C46.2683 51.546 46.1387 51.546 46.009 51.5316C43.417 51.3588 40.9689 50.3364 39.1401 49.4579C34.0856 47.0099 29.6503 43.5394 25.9638 39.1329C22.9253 35.4752 20.8949 32.0911 19.5412 28.4622C18.7348 26.2734 18.4324 24.603 18.5476 23.0189C18.634 22.0829 18.9796 21.3197 19.6564 20.6573L22.7525 17.5756C22.9973 17.3452 23.3717 17.0716 23.7749 17.0716C24.1782 17.0716 24.5238 17.3308 24.7398 17.5612C24.7542 17.5756 24.7686 17.59 24.783 17.6044C25.3302 18.1084 25.8486 18.6412 26.3958 19.2028C26.6838 19.4908 26.9718 19.7933 27.2598 20.0813L29.7223 22.5437C30.4855 23.3069 30.4855 23.8685 29.7223 24.6318C29.4631 24.891 29.2039 25.1502 28.9447 25.4094C28.1814 26.1726 27.4758 26.907 26.6982 27.5982C26.6694 27.6126 26.655 27.6414 26.6262 27.6702C25.5462 28.7503 25.9206 29.8735 26.0358 30.2479C26.0502 30.2911 26.0646 30.3199 26.079 30.3631C26.7414 31.9615 27.663 33.4592 29.0743 35.2448L29.0887 35.2592C31.6231 38.3841 34.2872 40.8033 37.2393 42.6754C37.6281 42.9202 38.0169 43.1218 38.3913 43.309C38.7081 43.4674 38.9961 43.6114 39.2409 43.7698C39.2841 43.7986 39.3417 43.8274 39.3993 43.8562C39.7737 44.0434 40.1481 44.1298 40.5225 44.1298C41.1561 44.1298 41.7466 43.8706 42.2506 43.3522L45.3466 40.2561C45.5914 40.0113 45.9514 39.7233 46.3547 39.7233C46.7291 39.7233 47.0747 39.9969 47.2907 40.2273C47.3051 40.2417 47.3051 40.2417 47.3195 40.2561L52.302 45.2386C53.0076 45.9443 53.0076 46.5923 52.2732 47.3555L52.2588 47.3699C51.9276 47.7299 51.5676 48.0755 51.1788 48.4499C50.6028 49.0115 49.9979 49.6019 49.4219 50.2788Z" fill="#45474D"/>
</svg>
