<svg width="103" height="35" viewBox="0 0 103 35" fill="none" xmlns="http://www.w3.org/2000/svg">
<g filter="url(#filter0_i_2445_14223)">
<path fill-rule="evenodd" clip-rule="evenodd" d="M28.8917 4.65897L31.0435 7.58283L33.5637 7.25275L30.9468 4.18865L33.1308 1.87537L31.0921 1.58268L28.9407 4.01037L29.1002 1.64654C28.3196 1.64654 27.5378 1.64654 26.7567 1.64654L26.2908 7.49264L28.699 7.49537C28.699 7.49537 28.8283 5.59979 28.8917 4.65897ZM57.9925 29.66L57.9269 26.6421L67.5377 26.6286L67.0491 16.6322C63.5742 16.6322 60.0979 16.6322 56.6234 16.6322C56.6126 15.9572 56.6017 15.2829 56.5916 14.6078C60.5978 14.6078 64.6059 14.6078 68.613 14.6078C68.5803 13.9589 68.5475 13.3087 68.5145 12.6597C64.5293 12.6597 60.5443 12.6597 56.5583 12.6597C56.5478 12.0058 56.537 11.3529 56.5259 10.699C54.0663 10.699 51.6063 10.699 49.1465 10.699C49.1414 11.3529 49.1353 12.0058 49.1301 12.6597C45.1449 12.6597 41.1585 12.6597 37.1731 12.6597L37.071 14.6078H49.1141L49.0974 19.2891C53.7941 19.2891 58.4916 19.2891 63.1883 19.2891C63.2319 20.5365 63.2753 21.7834 63.3189 23.0307L41.7184 23.0432L41.8165 19.2891L47.8758 19.2766L47.8919 16.6322H37.9179L37.5158 26.6421C39.6163 26.6421 41.7184 26.6421 43.8189 26.6421L42.2879 29.66C40.3882 29.66 38.4871 29.66 36.587 29.66C36.506 31.4394 36.4243 33.2196 36.3422 35C40.3061 35 44.27 35 48.2339 35L52.7951 25.5453C52.8052 28.6967 52.8169 31.8491 52.8271 35C58.4531 35 64.0788 35 69.7038 35C69.6066 33.2159 69.5089 31.4311 69.4114 29.6477L57.9925 29.66ZM19.0606 4.1105C19.3955 2.58334 20.6881 2.7329 20.6881 2.7329C21.1116 2.76884 22.0369 2.82212 21.9032 4.48952C21.7702 6.15741 20.8883 6.37034 20.119 6.3429C19.35 6.31755 18.7262 5.63717 19.0606 4.1105ZM20.13 7.57962C22.4153 7.57962 24.2983 6.44913 24.411 4.28589C24.5109 2.3627 22.3715 1.52443 20.7659 1.53255C20.7659 1.53255 17.5443 1.54256 16.6745 3.85408C15.7991 6.18164 17.8453 7.57962 20.13 7.57962ZM41.0934 6.45074C40.114 6.45074 39.1342 6.45074 38.1548 6.45074C38.1718 5.98924 38.1872 5.52758 38.2032 5.06543C39.0008 5.06543 39.7987 5.06543 40.5959 5.06543L40.6438 3.95982C40.6438 3.95533 40.6438 3.95148 40.6438 3.94715C39.8459 3.94715 39.0483 3.94715 38.2518 3.94715C38.2678 3.57904 38.2839 3.20996 38.3001 2.84073C39.1078 2.84073 39.9154 2.84073 40.7244 2.84073L40.7724 1.74715L35.9882 1.7356L35.7 7.58283L41.0614 7.57015C41.0722 7.19787 41.0825 6.8243 41.0934 6.45074ZM13.6027 21.4181C13.0647 21.5682 12.5272 21.7187 11.9892 21.8692L12.4458 18.1544C12.8634 18.1544 13.2813 18.1544 13.7004 18.1544L14.0751 14.9037L12.8363 14.8914L13.3417 10.699L7.23351 10.7123L6.63021 14.9037C5.51744 14.9037 4.40386 14.9037 3.29089 14.9037C3.12795 15.9872 2.96563 17.0711 2.80249 18.1544C3.93229 18.1544 5.06167 18.1544 6.19025 18.1544L5.392 23.765L1.61272 24.8359L1.22159 27.2734L5.05032 26.1899L4.10515 32.7681C3.74686 32.7681 3.38877 32.7681 3.03007 32.7681C3.18206 31.7276 3.33466 30.6876 3.48665 29.6477L0.814869 29.6342L0 34.9612C0.00628225 34.9612 7.08659 34.9612 7.08659 34.9612L10.8985 30.744L11.6797 24.2813L13.3257 23.8043C13.4175 23.008 13.5097 22.2128 13.6027 21.4181ZM10.462 2.84073C10.462 2.84073 12.1422 2.69439 12.1853 3.35085C12.2285 4.00652 11.6171 4.33981 10.7512 4.41747L10.6063 5.46002C10.6063 5.46002 14.2506 5.65354 14.5357 3.23901C14.5927 2.75504 14.1975 1.75759 11.8905 1.75759C9.58429 1.75759 8.26238 1.73223 8.26238 1.73223L7.42704 7.59984H9.81977L10.462 2.84073ZM45.701 2.65106C46.3201 2.65106 46.727 2.68414 46.9921 2.76184C47.3875 2.8798 47.4691 3.09493 47.4691 3.45127C47.4691 4.56359 46.4394 4.51614 45.6685 4.50706L45.701 2.65106ZM45.6527 5.16781H46.2629C46.6952 5.97159 47.1297 6.77809 47.564 7.58283L50.0834 7.37984L48.2208 4.8878C48.2625 4.8878 49.6634 4.55563 49.6634 3.09218C49.6634 1.62729 47.1072 1.64654 47.1072 1.64654H43.3405L43.2116 7.48109L45.6203 7.46889C45.6315 6.70106 45.6416 5.9342 45.6527 5.16781ZM77.81 7.58074L77.2634 1.7494L74.9193 1.74715C75.0806 3.69233 75.2415 5.63766 75.4012 7.58283L77.81 7.58074ZM81.8582 7.58283L81.5021 4.26391L85.4678 7.58283C85.9763 7.58283 86.4846 7.58283 86.9928 7.58283C86.7569 5.63766 86.5218 3.69233 86.2859 1.74715C86.2859 1.74715 86.2754 1.74715 86.2706 1.74715C86.2706 1.7433 86.2706 1.73993 86.2706 1.7356C85.6604 1.7356 85.0504 1.7356 84.44 1.7356L84.7776 4.92631L81.0208 1.74443L79.3828 1.74715L79.9614 7.58283H81.8582ZM92.703 7.48221C93.0607 7.51078 93.4033 7.56421 93.7004 7.56517C95.7679 7.57785 96.4324 7.27698 96.4324 7.27698L96.0472 4.78654C95.2552 4.78654 94.4634 4.78654 93.6709 4.78654C93.7454 5.29442 93.8212 5.80374 93.8962 6.31097C93.8962 6.31097 91.5924 6.67956 91.2272 4.434C91.1387 3.8889 91.469 3.49495 91.7461 3.23901C92.6134 2.44037 94.5864 2.85405 94.5864 2.85405C94.7362 2.51515 94.8866 2.17576 95.0363 1.83734C95.0363 1.83734 91.6157 0.749858 89.5126 2.56136C88.5851 3.36112 88.4989 4.53413 89.1043 5.47912C89.7795 6.53546 91.2603 7.36668 92.703 7.48221ZM27.2362 19.1479H23.9607L23.7348 18.1544H27.6604L27.2362 19.1479ZM29.7615 14.8012L34.5836 13.3437L34.7139 11.0472L29.9248 12.4797C29.9627 11.8858 30 11.2929 30.0383 10.699H27.1714C27.0631 12.096 26.9541 13.4939 26.8463 14.8914H25.249C25.3631 13.4939 25.4778 12.096 25.5915 10.699H20.5582C20.4988 11.2836 20.439 11.8691 20.3786 12.4539L15.8337 11.0472L15.5733 13.3437L20.1506 14.7753L20.119 14.9037L14.9708 14.8914L14.5795 18.1544L18.7339 18.1807L18.9288 19.1612C17.3708 19.1565 15.8124 19.1524 14.254 19.1479C14.1782 19.823 14.1018 20.4982 14.0258 21.1733H21.2585L21.1286 22.5915L14.677 22.604L14.4496 24.6684H20.9329C20.8889 25.1536 20.8459 25.6395 20.802 26.1257H13.4392L13.1948 28.2413H19.3364L18.0817 29.66H13.4558C13.2499 31.4394 13.0432 33.2196 12.8363 35H19.9877L24.8256 29.4278L26.7971 35H33.4595C33.5513 33.2196 33.6439 31.4394 33.7367 29.66H28.0345L27.5459 28.2413H34.4535C34.4912 27.5362 34.5293 26.8305 34.5676 26.1257H27.204C27.2423 25.6395 27.2804 25.1536 27.3181 24.6684H33.8012C33.8397 23.9765 33.878 23.2842 33.9155 22.5915H27.4644C27.5023 22.1186 27.5406 21.6457 27.5791 21.1733H34.8175L34.9251 19.1479L30.1208 19.1612L30.5275 18.1674C32.0746 18.1637 33.6224 18.1596 35.1701 18.1544L35.3164 14.9037H29.7615V14.8012ZM102.186 29.3506C98.2443 29.3506 94.3009 29.3506 90.3595 29.3506L89.6263 23.1586L100.003 23.1472C99.8408 22.0286 99.6771 20.9111 99.5144 19.792L89.2356 19.7804L88.6165 14.5685L99.6284 14.5555L99.1399 11.3694C89.5783 11.3694 80.0145 11.3694 70.4537 11.3694L70.649 14.5555L81.661 14.5593L82.1494 19.792C78.7241 19.792 75.2967 19.792 71.8712 19.792C71.9415 20.9111 72.0119 22.0286 72.082 23.1472L82.4751 23.1586L83.0617 29.3506L71.2347 29.3636L71.5618 34.7035C82.0398 34.7035 92.5214 34.7035 103 34.7035C102.729 32.9191 102.457 31.1345 102.186 29.3506ZM57.6666 5.75865C57.3937 7.05313 56.1735 7.55924 55.7447 7.55924L60.2432 7.5724C59.3031 7.45638 58.3224 6.58328 58.1273 5.69045C58.995 6.32044 59.5623 6.51284 60.4708 6.40388C61.378 6.29444 62.1398 5.67167 62.1398 4.53573C62.1398 2.62908 57.7789 0 57.7789 0C57.7789 0 53.7076 2.57516 53.7076 4.53413C53.7076 6.49471 56.3733 7.02168 57.6666 5.75865ZM68.3862 7.48109L68.2089 4.64694L70.7465 7.57015L73.2681 7.25949L70.2003 4.16281L72.0779 1.87537L70.0078 1.58268L68.1775 4.01037L68.0168 1.64654L65.6731 1.65858L65.9777 7.49264L68.3862 7.48109Z" fill="url(#paint0_linear_2445_14223)"/>
</g>
<defs>
<filter id="filter0_i_2445_14223" x="0" y="0" width="103.065" height="35.0648" filterUnits="userSpaceOnUse" color-interpolation-filters="sRGB">
<feFlood flood-opacity="0" result="BackgroundImageFix"/>
<feBlend mode="normal" in="SourceGraphic" in2="BackgroundImageFix" result="shape"/>
<feColorMatrix in="SourceAlpha" type="matrix" values="0 0 0 0 0 0 0 0 0 0 0 0 0 0 0 0 0 0 127 0" result="hardAlpha"/>
<feOffset dx="0.0647912" dy="0.0647912"/>
<feGaussianBlur stdDeviation="0.259165"/>
<feComposite in2="hardAlpha" operator="arithmetic" k2="-1" k3="1"/>
<feColorMatrix type="matrix" values="0 0 0 0 1 0 0 0 0 1 0 0 0 0 1 0 0 0 0.544662 0"/>
<feBlend mode="normal" in2="shape" result="effect1_innerShadow_2445_14223"/>
</filter>
<linearGradient id="paint0_linear_2445_14223" x1="0" y1="0" x2="0" y2="35" gradientUnits="userSpaceOnUse">
<stop stop-color="#F5E1BF"/>
<stop offset="1" stop-color="#C49D61"/>
</linearGradient>
</defs>
</svg>
