<svg width="47" height="47" viewBox="0 0 47 47" fill="none" xmlns="http://www.w3.org/2000/svg">
<path d="M32.8015 1.97874C39.2863 2.45576 44.402 7.5714 44.879 14.0562C45.1119 17.2222 45.291 20.6001 45.291 23.5C45.291 26.4 45.1119 29.7779 44.879 32.9439C44.402 39.4287 39.2863 44.5443 32.8015 45.0213C29.6355 45.2542 26.2576 45.4334 23.3577 45.4334C20.4578 45.4334 17.0798 45.2542 13.9139 45.0213C7.42904 44.5443 2.31339 39.4287 1.83638 32.9439C1.6035 29.7779 1.42435 26.4 1.42435 23.5C1.42435 20.6001 1.6035 17.2222 1.83638 14.0562C2.31339 7.5714 7.42904 2.45576 13.9138 1.97874C17.0798 1.74586 20.4578 1.56671 23.3577 1.56671C26.2576 1.56671 29.6355 1.74586 32.8015 1.97874Z" fill="url(#paint0_radial)"/>
<path d="M29.0024 12.6953V12.1619C29.0024 11.7963 28.7134 11.5 28.3569 11.5H17.643C17.2865 11.5 16.9976 11.7963 16.9976 12.1619V12.6953H14.2908C13.5779 12.6953 13 13.288 13 14.0191V17.9938C13 20.5507 14.9586 22.6471 17.418 22.7885C18.216 24.8509 19.876 25.5951 21.4742 26.8201V30.3211C21.4742 30.6867 21.1853 30.983 20.8288 30.983H18.7222C18.4357 30.983 18.1835 31.1767 18.1029 31.4587L17.1903 34.652C17.0692 35.0758 17.3791 35.5 17.8097 35.5H28.1903C28.6209 35.5 28.9308 35.0758 28.8097 34.652L27.8971 31.4587C27.8165 31.1767 27.5643 30.983 27.2778 30.983H24.7495C24.3931 30.983 24.1041 30.6867 24.1041 30.3211V26.8201C25.9839 25.8591 27.752 24.9332 28.5819 22.7886C31.0414 22.6471 33 20.5508 33 17.9939V14.0191C33 13.288 32.4221 12.6953 31.7092 12.6953H29.0024ZM14.3713 17.9938V14.4325C14.3713 14.2497 14.5158 14.1016 14.694 14.1016H16.9976V20.5251C16.9976 20.7968 17.015 21.0644 17.0485 21.3269C15.5249 21.0223 14.3713 19.644 14.3713 17.9938ZM31.6287 17.9938C31.6287 19.644 30.4749 21.0224 28.9514 21.3269C28.9849 21.0644 29.0024 20.7968 29.0024 20.5251V14.1016H31.306C31.4842 14.1016 31.6287 14.2497 31.6287 14.4325V17.9938Z" fill="url(#paint1_linear)"/>
<defs>
<radialGradient id="paint0_radial" cx="0" cy="0" r="1" gradientUnits="userSpaceOnUse" gradientTransform="translate(23.5 4.30838) rotate(90) scale(47)">
<stop stop-color="#82848C"/>
<stop offset="1" stop-color="#83858D" stop-opacity="0"/>
</radialGradient>
<linearGradient id="paint1_linear" x1="23" y1="11.5" x2="23" y2="35.5" gradientUnits="userSpaceOnUse">
<stop stop-color="#FFEFCB"/>
<stop offset="1" stop-color="#FFDE96"/>
</linearGradient>
</defs>
</svg>
