<svg width="45" height="45" viewBox="0 0 45 45" fill="none" xmlns="http://www.w3.org/2000/svg">
<path d="M31.8015 0.978745C38.2863 1.45576 43.402 6.5714 43.879 13.0562C44.1119 16.2222 44.291 19.6001 44.291 22.5C44.291 25.4 44.1119 28.7779 43.879 31.9439C43.402 38.4287 38.2863 43.5443 31.8015 44.0213C28.6355 44.2542 25.2576 44.4334 22.3577 44.4334C19.4578 44.4334 16.0798 44.2542 12.9139 44.0213C6.42904 43.5443 1.31339 38.4287 0.836384 31.9439C0.6035 28.7779 0.424351 25.4 0.424351 22.5C0.424351 19.6001 0.6035 16.2222 0.836384 13.0562C1.31339 6.5714 6.42904 1.45576 12.9139 0.978744C16.0798 0.74586 19.4578 0.566711 22.3577 0.566711C25.2576 0.566711 28.6355 0.74586 31.8015 0.978745Z" fill="url(#paint0_radial)"/>
<path d="M32.4231 13.859C32.38 13.5495 32.1574 13.295 31.8564 13.2113L22.2104 10.5288C22.0729 10.4905 21.9277 10.4905 21.79 10.5288L12.144 13.2113C11.8431 13.295 11.6204 13.5494 11.5773 13.859C11.5214 14.2613 10.245 23.7667 13.5188 28.4954C16.7886 33.2184 21.6124 34.4288 21.8161 34.478C21.8766 34.4927 21.9383 34.4999 22.0002 34.4999C22.0621 34.4999 22.1238 34.4926 22.1844 34.478C22.3882 34.4288 27.2119 33.2184 30.4817 28.4954C33.7554 23.7668 32.4791 14.2614 32.4231 13.859ZM28.2207 19.4083L21.6411 25.9879C21.488 26.141 21.2872 26.2177 21.0866 26.2177C20.8859 26.2177 20.6851 26.1411 20.532 25.9879L16.4639 21.9198C16.3168 21.7728 16.2342 21.5733 16.2342 21.3653C16.2342 21.1573 16.3169 20.9577 16.4639 20.8107L17.2717 20.003C17.578 19.6968 18.0746 19.6967 18.3808 20.003L21.0866 22.7087L26.3038 17.4914C26.4508 17.3442 26.6504 17.2616 26.8584 17.2616C27.0664 17.2616 27.2659 17.3442 27.4129 17.4914L28.2207 18.2991C28.527 18.6054 28.527 19.102 28.2207 19.4083Z" fill="url(#paint1_linear)"/>
<defs>
<radialGradient id="paint0_radial" cx="0" cy="0" r="1" gradientUnits="userSpaceOnUse" gradientTransform="translate(22.5 3.30838) rotate(90) scale(47)">
<stop stop-color="#82848C"/>
<stop offset="1" stop-color="#83858D" stop-opacity="0"/>
</radialGradient>
<linearGradient id="paint1_linear" x1="22.0002" y1="10.5001" x2="22.0002" y2="34.4999" gradientUnits="userSpaceOnUse">
<stop stop-color="#FFEFCB"/>
<stop offset="1" stop-color="#FFDE96"/>
</linearGradient>
</defs>
</svg>
