<svg width="47" height="47" viewBox="0 0 47 47" fill="none" xmlns="http://www.w3.org/2000/svg">
<path d="M32.8015 1.97874C39.2863 2.45576 44.402 7.5714 44.879 14.0562C45.1119 17.2222 45.291 20.6001 45.291 23.5C45.291 26.4 45.1119 29.7779 44.879 32.9439C44.402 39.4287 39.2863 44.5443 32.8015 45.0213C29.6355 45.2542 26.2576 45.4334 23.3577 45.4334C20.4578 45.4334 17.0798 45.2542 13.9139 45.0213C7.42904 44.5443 2.31339 39.4287 1.83638 32.9439C1.6035 29.7779 1.42435 26.4 1.42435 23.5C1.42435 20.6001 1.6035 17.2222 1.83638 14.0562C2.31339 7.5714 7.42904 2.45576 13.9138 1.97874C17.0798 1.74586 20.4578 1.56671 23.3577 1.56671C26.2576 1.56671 29.6355 1.74586 32.8015 1.97874Z" fill="url(#paint0_radial)"/>
<g clip-path="url(#clip0)">
<path d="M28.2501 30.4999H17.7501C16.7851 30.4999 16.0001 31.2849 16.0001 32.2499V34.7499C16.0001 35.1639 16.3361 35.4999 16.7501 35.4999H29.2501C29.6641 35.4999 30.0001 35.1639 30.0001 34.7499V32.2499C30.0001 31.2849 29.2151 30.4999 28.2501 30.4999Z" fill="url(#paint1_linear)"/>
<path d="M29.579 19.4629L26.58 16.5129L27.08 12.3629C27.114 12.0819 26.987 11.8069 26.753 11.6499C26.519 11.4939 26.216 11.4819 25.968 11.6199L22.558 13.5389L18.969 11.5909C18.712 11.4509 18.399 11.4739 18.164 11.6479C17.931 11.8209 17.818 12.1149 17.877 12.4009L18.729 16.5409L16.005 19.4489C15.815 19.6519 15.753 19.9429 15.844 20.2059C15.935 20.4689 16.163 20.6599 16.438 20.7029L20.406 21.3159L22.339 25.0919C22.468 25.3429 22.726 25.4999 23.007 25.4999H23.032C23.323 25.4899 23.582 25.3129 23.696 25.0449L25.288 21.3239L29.164 20.7399C29.445 20.6979 29.679 20.4999 29.766 20.2299C29.854 19.9589 29.781 19.6629 29.579 19.4629Z" fill="url(#paint2_linear)"/>
<path d="M27.9998 27.2499V28.9999H17.9998V27.2499C17.9998 25.7299 19.2298 24.4999 20.7498 24.4999H25.2498C26.7698 24.4999 27.9998 25.7299 27.9998 27.2499Z" fill="url(#paint3_linear)"/>
</g>
<defs>
<radialGradient id="paint0_radial" cx="0" cy="0" r="1" gradientUnits="userSpaceOnUse" gradientTransform="translate(23.5 4.30838) rotate(90) scale(47)">
<stop stop-color="#82848C"/>
<stop offset="1" stop-color="#83858D" stop-opacity="0"/>
</radialGradient>
<linearGradient id="paint1_linear" x1="22.9014" y1="11.4998" x2="22.9014" y2="35.4999" gradientUnits="userSpaceOnUse">
<stop stop-color="#FFEFCB"/>
<stop offset="1" stop-color="#FFDE96"/>
</linearGradient>
<linearGradient id="paint2_linear" x1="22.9014" y1="11.4998" x2="22.9014" y2="35.4999" gradientUnits="userSpaceOnUse">
<stop stop-color="#FFEFCB"/>
<stop offset="1" stop-color="#FFDE96"/>
</linearGradient>
<linearGradient id="paint3_linear" x1="22.9014" y1="11.4998" x2="22.9014" y2="35.4999" gradientUnits="userSpaceOnUse">
<stop stop-color="#FFEFCB"/>
<stop offset="1" stop-color="#FFDE96"/>
</linearGradient>
<clipPath id="clip0">
<rect width="24" height="24" fill="white" transform="translate(11 11.5)"/>
</clipPath>
</defs>
</svg>
